<svg preserveAspectRatio="none" overflow="visible" style="display: block;" width="15.3752" height="15.5" viewBox="0 0 15.3752 15.5" fill="none" xmlns="http://www.w3.org/2000/svg">
<path id="Vector" d="M11.0338 12.7692H4.34146M11.0338 12.7692C11.6254 12.7692 12.1928 13.0043 12.6112 13.4226C13.0295 13.841 13.2645 14.4084 13.2645 15H2.11069C2.11069 14.4084 2.34571 13.841 2.76406 13.4226C3.18241 13.0043 3.74982 12.7692 4.34146 12.7692M11.0338 12.7692V10.2596C11.0338 9.79785 10.6597 9.42308 10.1972 9.42308H9.54956M4.34146 12.7692V10.2596C4.34146 9.79785 4.71623 9.42308 5.17799 9.42308H5.8264M9.54956 9.42308H5.8264M9.54956 9.42308C9.13191 8.70176 8.88231 7.89554 8.81935 7.06441M5.8264 9.42308C6.2438 8.7017 6.49313 7.89548 6.55587 7.06441M12.7068 1.97677V2.17308C12.7068 3.74056 11.9885 5.14 10.8627 6.06056C10.2676 6.54792 9.56886 6.89144 8.81935 7.06441M8.81935 7.06441C8.07463 7.23618 7.30058 7.23618 6.55587 7.06441M2.66838 1.97677V2.17308C2.66838 3.74056 3.38669 5.14 4.51248 6.06056C5.10738 6.54782 5.80662 6.89133 6.55587 7.06441M2.66838 1.97677C1.93817 2.0831 1.2154 2.21249 0.500071 2.36344C0.665889 3.33664 1.14965 4.22741 1.87567 4.89638C2.60169 5.56535 3.52899 5.97476 4.51248 6.06056M2.66838 1.97677V0.850231C4.30874 0.618974 5.98479 0.5 7.68761 0.5C9.39117 0.5 11.0672 0.618974 12.7068 0.849487V1.97677M12.7068 1.97677C13.4335 2.08251 14.1567 2.21146 14.8751 2.36344C14.7094 3.33652 14.2257 4.22721 13.4998 4.89617C12.774 5.56512 11.8461 5.97461 10.8627 6.06056" stroke="#828282" stroke-linecap="round" stroke-linejoin="round"/>
</svg>
