<svg xmlns="http://www.w3.org/2000/svg" viewBox="-0.5 -0.5 14 15"><path d="M4.227 4.667C4.227 4.943 4.451 5.167 4.727 5.167C5.003 5.167 5.227 4.943 5.227 4.667L4.727 4.667L4.227 4.667ZM4.727 1.75L5.227 1.75L4.727 1.75ZM6.5 0L6.5 -0.5L6.5 0ZM13 12.25L13.5 12.25L13 12.25ZM6.5 14L6.5 14.5L6.5 14ZM5.227 9.333C5.227 9.057 5.003 8.833 4.727 8.833C4.451 8.833 4.227 9.057 4.227 9.333L4.727 9.333L5.227 9.333ZM8.033 4.311C7.837 4.117 7.52 4.119 7.326 4.315C7.132 4.512 7.134 4.828 7.331 5.022L7.682 4.667L8.033 4.311ZM10.045 7L10.397 7.356C10.492 7.262 10.545 7.134 10.545 7C10.545 6.866 10.492 6.738 10.397 6.644L10.045 7ZM7.331 8.978C7.134 9.172 7.132 9.488 7.326 9.685C7.52 9.881 7.837 9.883 8.033 9.689L7.682 9.333L7.331 8.978ZM0 6.5C-0.276 6.5 -0.5 6.724 -0.5 7C-0.5 7.276 -0.276 7.5 0 7.5L0 7L0 6.5ZM4.727 4.667L5.227 4.667L5.227 1.75L4.727 1.75L4.227 1.75L4.227 4.667L4.727 4.667ZM4.727 1.75L5.227 1.75C5.227 1.421 5.36 1.103 5.598 0.868L5.246 0.513L4.895 0.157C4.468 0.578 4.227 1.151 4.227 1.75L4.727 1.75ZM5.246 0.513L5.598 0.868C5.836 0.633 6.16 0.5 6.5 0.5L6.5 0L6.5 -0.5C5.899 -0.5 5.322 -0.264 4.895 0.157L5.246 0.513ZM6.5 0L6.5 0.5L11.227 0.5L11.227 0L11.227 -0.5L6.5 -0.5L6.5 0ZM11.227 0L11.227 0.5C11.567 0.5 11.891 0.633 12.13 0.868L12.481 0.513L12.832 0.157C12.405 -0.264 11.828 -0.5 11.227 -0.5L11.227 0ZM12.481 0.513L12.13 0.868C12.367 1.103 12.5 1.421 12.5 1.75L13 1.75L13.5 1.75C13.5 1.151 13.259 0.578 12.832 0.157L12.481 0.513ZM13 1.75L12.5 1.75L12.5 12.25L13 12.25L13.5 12.25L13.5 1.75L13 1.75ZM13 12.25L12.5 12.25C12.5 12.579 12.367 12.897 12.13 13.132L12.481 13.487L12.832 13.843C13.259 13.422 13.5 12.849 13.5 12.25L13 12.25ZM12.481 13.487L12.13 13.132C11.891 13.367 11.567 13.5 11.227 13.5L11.227 14L11.227 14.5C11.828 14.5 12.405 14.264 12.832 13.843L12.481 13.487ZM11.227 14L11.227 13.5L6.5 13.5L6.5 14L6.5 14.5L11.227 14.5L11.227 14ZM6.5 14L6.5 13.5C6.16 13.5 5.836 13.367 5.598 13.132L5.246 13.487L4.895 13.843C5.322 14.264 5.899 14.5 6.5 14.5L6.5 14ZM5.246 13.487L5.598 13.132C5.36 12.897 5.227 12.579 5.227 12.25L4.727 12.25L4.227 12.25C4.227 12.849 4.468 13.422 4.895 13.843L5.246 13.487ZM4.727 12.25L5.227 12.25L5.227 9.333L4.727 9.333L4.227 9.333L4.227 12.25L4.727 12.25ZM7.682 4.667L7.331 5.022L9.694 7.356L10.045 7L10.397 6.644L8.033 4.311L7.682 4.667ZM10.045 7L9.694 6.644L7.331 8.978L7.682 9.333L8.033 9.689L10.397 7.356L10.045 7ZM10.045 7L10.045 6.5L0 6.5L0 7L0 7.5L10.045 7.5L10.045 7Z" fill="#878787" fill-rule="nonzero"/></svg>