<svg preserveAspectRatio="none" overflow="visible" style="display: block;" width="392" height="134" viewBox="0 0 392 134" fill="none" xmlns="http://www.w3.org/2000/svg">
<g id="Logo">
<g id="Vector">
<path d="M284.232 126.308C282.759 128.032 281.094 129.378 279.06 130.372C268.408 135.567 255.34 135.078 244.913 129.491C238.057 125.815 232.381 120.418 228.182 113.87C222.217 104.568 220.085 94.1 221.284 83.1062C222.052 76.0574 224.443 69.4458 228.273 63.4979C236.66 50.4735 251.235 41.9874 266.889 43.6785C271.582 44.1861 275.901 45.7977 280.03 47.9078C281.671 48.8772 283.074 49.868 284.418 51.2166L284.431 45.3635L308.813 45.3696V132.06L284.428 132.066L284.418 126.121L284.226 126.311L284.232 126.308ZM274.333 107.919C279.646 105.39 283.394 100.623 284.751 94.9349C285.654 91.1551 285.696 87.3417 284.925 83.5344C283.827 78.1185 280.594 73.4672 275.922 70.5804C272.891 68.7088 269.53 67.9779 265.986 67.926C260.692 67.8495 255.818 69.7577 252.015 73.406C248.929 76.3662 246.858 80.039 246.105 84.2958C245.51 87.6536 245.559 90.99 246.294 94.3171C247.102 97.9746 248.889 101.146 251.494 103.779C255.211 107.537 260.057 109.632 265.37 109.681C268.49 109.708 271.427 109.302 274.333 107.916V107.919Z" fill="url(#paint0_linear_0_7)"/>
<path d="M373.003 117.222C368.102 126.62 358.636 132.338 348.218 133.644C343.253 134.268 338.343 134.066 333.439 133.084C325.37 131.467 318.395 127.048 312.961 120.929L333.555 105.944C336.492 109.023 340.692 110.124 344.787 109.543C347.151 109.207 348.816 107.479 349.27 105.167C349.828 102.323 348.48 99.6688 345.836 98.467C344.571 97.892 343.25 97.5128 341.844 97.2957C333.818 96.0541 326.943 93.1214 321.363 87.1215C317.273 82.724 315.153 77.1736 314.842 71.2012C314.537 65.2899 316.309 59.7823 320.082 55.2227C324.76 49.5683 331.176 45.5225 338.383 43.9659C341.417 43.3115 344.342 43.3696 347.425 43.6938C356.55 44.6571 363.906 49.4399 369.148 57.0362L351.622 69.7975C348.828 67.3266 345.891 65.5743 342.046 66.4244C340.667 66.7272 339.56 67.7486 339.1 68.8159C338.487 70.2379 338.593 71.7791 339.432 72.9504C340.914 75.0146 344.796 75.6507 347.52 76.0054C355.324 77.0268 362.662 79.5466 368.615 84.8157C374.702 90.201 376.434 98.5954 375.913 106.537C375.665 110.311 374.751 113.883 373.006 117.225L373.003 117.222Z" fill="url(#paint1_linear_0_7)"/>
<path d="M180.924 132.066C170.643 132.054 160.546 129.742 152.071 123.904C142.51 117.323 136.807 107.146 136.566 95.4028V65.9076H123.611V43.4277H136.572L136.557 32.171L160.948 14.4219L160.954 43.4277H181.378V65.9046H160.948L160.964 94.8951C161.302 98.9471 163.233 102.338 166.727 104.311C171.049 106.871 175.886 107.736 180.921 107.754V132.06L180.924 132.066Z" fill="url(#paint2_linear_0_7)"/>
<path d="M214.772 4.23545H190.536V132.063H214.772V4.23545Z" fill="url(#paint3_linear_0_7)"/>
<path d="M17.4843 115.58L16.7188 117.063C24.6724 118.785 32.4644 121.188 40.0612 124.271L40.1466 124.094L42.0832 120.051L42.565 119.026C35.0536 115.941 27.35 113.494 19.494 111.696L17.4873 115.58H17.4843Z" fill="url(#paint4_linear_0_7)"/>
<path d="M23.4129 104.109L20.6499 109.452C28.4632 111.274 36.124 113.73 43.6019 116.806L44.4802 114.938H53.6568C51.4152 113.861 49.1432 112.84 46.8407 111.867C39.2073 108.647 31.3848 106.057 23.4098 104.106L23.4129 104.109Z" fill="url(#paint5_linear_0_7)"/>
<path d="M15.3007 119.803L12.7664 124.705C20.8603 126.308 28.7834 128.65 36.4931 131.727L39.003 126.476C31.3787 123.393 23.5471 121.002 15.5538 119.311L15.3007 119.803Z" fill="url(#paint6_linear_0_7)"/>
<path d="M11.0311 128.06L9 132.063H30.4272C24.2729 129.898 17.9844 128.201 11.5922 126.971L11.0281 128.06H11.0311Z" fill="url(#paint7_linear_0_7)"/>
<path d="M53.9434 94.311C66.7857 99.7575 78.8137 106.663 89.9086 114.938H106.304L108.018 118.445L114.712 132.066L143.592 132.06L76.2032 2L75.1999 3.90518L32.3699 86.7943C39.6952 88.8126 46.8986 91.3172 53.9556 94.311H53.9434ZM57.8013 87.1398L75.1816 51.0393L77.1913 55.183L90.1464 81.6292L94.7118 90.9257L55.9776 90.9319L57.8074 87.1368L57.8013 87.1398Z" fill="url(#paint8_linear_0_7)"/>
<path d="M31.211 89.0175L28.4693 94.3233C36.0783 96.3232 43.5531 98.8676 50.8663 101.962C59.4878 105.611 67.725 109.944 75.5384 114.938H85.764C75.578 107.644 64.6204 101.498 52.9919 96.5648C45.8739 93.5465 38.6034 91.0297 31.211 89.0175Z" fill="url(#paint9_linear_0_7)"/>
<path d="M27.3196 96.5526L24.5687 101.877C32.4705 103.843 40.2228 106.421 47.7891 109.617C51.6531 111.247 55.4347 113.023 59.131 114.941H70.912C64.2087 110.88 57.2005 107.302 49.9178 104.219C42.5437 101.1 35.0017 98.5434 27.3196 96.5526Z" fill="url(#paint10_linear_0_7)"/>
</g>
</g>
<defs>
<linearGradient id="paint0_linear_0_7" x1="192.5" y1="68" x2="192.5" y2="257.5" gradientUnits="userSpaceOnUse">
<stop stop-color="#14121a"/>
<stop offset="1" stop-color="#F3216E"/>
</linearGradient>
<linearGradient id="paint1_linear_0_7" x1="192.5" y1="68" x2="192.5" y2="257.5" gradientUnits="userSpaceOnUse">
<stop stop-color="#14121a"/>
<stop offset="1" stop-color="#F3216E"/>
</linearGradient>
<linearGradient id="paint2_linear_0_7" x1="192.5" y1="68" x2="192.5" y2="257.5" gradientUnits="userSpaceOnUse">
<stop stop-color="#14121a"/>
<stop offset="1" stop-color="#F3216E"/>
</linearGradient>
<linearGradient id="paint3_linear_0_7" x1="192.5" y1="68" x2="192.5" y2="257.5" gradientUnits="userSpaceOnUse">
<stop stop-color="#14121a"/>
<stop offset="1" stop-color="#F3216E"/>
</linearGradient>
<linearGradient id="paint4_linear_0_7" x1="192.5" y1="68" x2="192.5" y2="257.5" gradientUnits="userSpaceOnUse">
<stop stop-color="#14121a"/>
<stop offset="1" stop-color="#F3216E"/>
</linearGradient>
<linearGradient id="paint5_linear_0_7" x1="192.5" y1="68" x2="192.5" y2="257.5" gradientUnits="userSpaceOnUse">
<stop stop-color="#14121a"/>
<stop offset="1" stop-color="#F3216E"/>
</linearGradient>
<linearGradient id="paint6_linear_0_7" x1="192.5" y1="68" x2="192.5" y2="257.5" gradientUnits="userSpaceOnUse">
<stop stop-color="#14121a"/>
<stop offset="1" stop-color="#F3216E"/>
</linearGradient>
<linearGradient id="paint7_linear_0_7" x1="192.5" y1="68" x2="192.5" y2="257.5" gradientUnits="userSpaceOnUse">
<stop stop-color="#14121a"/>
<stop offset="1" stop-color="#F3216E"/>
</linearGradient>
<linearGradient id="paint8_linear_0_7" x1="192.5" y1="68" x2="192.5" y2="257.5" gradientUnits="userSpaceOnUse">
<stop stop-color="#14121a"/>
<stop offset="1" stop-color="#F3216E"/>
</linearGradient>
<linearGradient id="paint9_linear_0_7" x1="192.5" y1="68" x2="192.5" y2="257.5" gradientUnits="userSpaceOnUse">
<stop stop-color="#14121a"/>
<stop offset="1" stop-color="#F3216E"/>
</linearGradient>
<linearGradient id="paint10_linear_0_7" x1="192.5" y1="68" x2="192.5" y2="257.5" gradientUnits="userSpaceOnUse">
<stop stop-color="#14121a"/>
<stop offset="1" stop-color="#F3216E"/>
</linearGradient>
</defs>
</svg>
